<svg width="512" height="512" viewBox="0 0 512 512" fill="none" xmlns="http://www.w3.org/2000/svg">
<path d="M467.845 269.343L397.816 250.58C388.537 248.094 379.076 250.748 372.452 256.781L353.228 221.13C341.269 198.95 324.491 179.54 304.341 164.475L354.809 114.007C358.348 110.468 358.348 104.73 354.809 101.19L298.418 44.7983C294.879 41.2603 289.141 41.2603 285.601 44.7983L200.422 129.977C177.555 129.99 155.25 134.431 134.122 143.183C112.966 151.946 94.0279 164.6 77.8351 180.792L52.9724 205.655C46.4674 212.16 42.8859 220.808 42.8859 230.006C42.8859 239.204 46.4683 247.852 52.9724 254.357C57.4438 258.828 62.8495 261.802 68.5661 263.295L24.7674 362.897C23.2631 366.317 24.0125 370.311 26.6551 372.954C28.3915 374.689 30.7097 375.608 33.0659 375.608C34.2966 375.608 35.5381 375.358 36.7117 374.842L136.327 331.037C137.818 336.763 140.794 342.178 145.27 346.656C151.984 353.369 160.802 356.726 169.621 356.726C178.44 356.726 187.258 353.369 193.972 346.656L203.839 336.788L207.79 340.74C228.539 387.429 273.637 418.187 324.372 420.729C323.679 426.52 324.863 432.353 327.832 437.495C331.462 443.784 337.326 448.283 344.34 450.162L414.369 468.927C416.717 469.556 419.075 469.856 421.399 469.856C433.401 469.856 444.415 461.833 447.666 449.702L466.588 378.114C467.884 373.281 465.015 368.312 460.18 367.016C455.348 365.72 450.377 368.589 449.082 373.424L430.159 445.011C428.866 449.839 423.887 452.714 419.06 451.419L349.031 432.654C346.693 432.028 344.739 430.528 343.528 428.432C342.318 426.336 341.996 423.894 342.623 421.556L382.027 274.495C383.321 269.669 388.303 266.796 393.127 268.087L463.156 286.851C467.982 288.145 470.858 293.124 469.564 297.951L460.18 332.97C458.884 337.804 461.754 342.773 466.588 344.069C471.42 345.365 476.392 342.496 477.687 337.661L487.07 302.641C490.951 288.16 482.326 273.224 467.845 269.343ZM335.585 107.598L208.945 234.238L207.925 233.219C202.761 228.055 196.372 224.569 189.416 223.008L320.205 92.2183L335.585 107.598ZM292.01 64.0233L307.389 79.4022L105.517 281.273L90.1383 265.894L292.01 64.0233ZM65.7885 241.541C62.7072 238.46 61.0108 234.363 61.0108 230.006C61.0108 225.649 62.7072 221.553 65.7885 218.471L90.6512 193.608C115.371 168.888 146.954 153.526 181.103 149.295L88.8568 241.541C82.4977 247.902 72.1485 247.901 65.7885 241.541ZM80.2838 281.673L117.935 319.323L50.7322 348.875L80.2838 281.673ZM133.714 309.469L118.335 294.09L143.906 268.519C145.431 275.314 148.821 281.77 154.098 287.048L155.118 288.067L133.714 309.469ZM181.154 333.839C174.793 340.199 164.445 340.198 158.085 333.84C151.725 327.478 151.725 317.129 158.085 310.769L167.952 300.902L191.021 323.971L181.154 333.839ZM328.897 402.753C283 401.863 241.891 374.292 223.736 331.97C223.282 330.912 222.631 329.95 221.816 329.134L166.913 274.232C159.14 266.459 159.14 253.809 166.913 246.037C170.679 242.271 175.686 240.197 181.011 240.197C186.336 240.197 191.343 242.271 195.108 246.037L250.011 300.939C253.55 304.477 259.288 304.477 262.828 300.939C266.367 297.401 266.367 291.662 262.828 288.122L221.761 247.055L291.364 177.452C310.352 191.151 326.148 209.095 337.276 229.732L362.649 276.787L328.897 402.753Z" fill="white"/>
</svg>
