<svg width="200" height="200" viewBox="0 0 200 200" fill="none" xmlns="http://www.w3.org/2000/svg">
<g clip-path="url(#clip0)">
<path d="M87.6623 44.463C92.2923 44.463 96.1507 44.3087 99.2374 44V47.0867C94.0929 48.3214 90.0287 52.7971 87.0449 60.5138L50.7762 154.041H49.5415H48.3068L10.6491 56.9641C8.17975 50.585 4.63005 47.2925 0 47.0867V44C4.1156 44.3087 9.62021 44.463 16.5138 44.463C25.3624 44.463 31.9473 44.3087 36.2687 44V47.0867C32.3589 47.2925 29.5294 47.8069 27.7803 48.63C26.1341 49.3503 25.3109 50.7393 25.3109 52.7971C25.3109 54.5462 25.9283 56.9641 27.1629 60.0508L55.0976 134.286L80.2542 69.0023C82.312 63.4462 83.3409 59.2277 83.3409 56.3468C83.3409 53.1572 82.2091 50.8422 79.9455 49.4017C77.7848 47.9613 74.4409 47.1896 69.9137 47.0867V44C75.7785 44.3087 81.6946 44.463 87.6623 44.463Z" fill="#8D2A48"/>
<path d="M200 145.552C197.634 149.051 195.267 151.571 192.901 153.115C190.534 154.658 187.396 155.43 183.486 155.43C179.268 155.43 175.769 154.195 172.991 151.726C170.316 149.256 168.31 144.935 166.972 138.762L163.577 123.328C162.342 117.978 161.159 113.862 160.027 110.981C158.998 108.1 157.404 105.785 155.243 104.036C153.082 102.287 150.047 101.413 146.137 101.413H131.475V136.91C131.475 140.819 131.784 143.649 132.401 145.398C133.019 147.147 134.15 148.33 135.797 148.948C137.546 149.565 140.272 149.977 143.976 150.182V153.269C139.243 152.96 132.71 152.806 124.376 152.806C115.527 152.806 108.942 152.96 104.621 153.269V150.182C108.325 149.977 111 149.565 112.646 148.948C114.396 148.33 115.579 147.147 116.196 145.398C116.813 143.649 117.122 140.819 117.122 136.91V60.3595C117.122 56.4497 116.813 53.6202 116.196 51.8711C115.579 50.1219 114.396 48.9387 112.646 48.3214C111 47.704 108.325 47.2925 104.621 47.0867V44C108.942 44.3087 115.219 44.463 123.45 44.463L140.118 44.3087C142.073 44.2058 144.285 44.1543 146.754 44.1543C158.69 44.1543 167.847 46.6751 174.226 51.7167C180.708 56.6555 183.949 63.0861 183.949 71.0086C183.949 75.0213 182.972 79.0855 181.017 83.2011C179.165 87.2138 175.975 90.8664 171.448 94.1589C167.024 97.3484 161.21 99.5091 154.008 100.641L155.86 100.95C162.651 102.081 167.59 104.139 170.676 107.123C173.763 110.107 176.027 114.84 177.467 121.322L181.325 137.064C182.354 141.797 183.435 145.089 184.567 146.941C185.698 148.793 187.242 149.719 189.197 149.719C190.946 149.719 192.386 149.256 193.518 148.33C194.753 147.404 196.142 145.913 197.685 143.855L200 145.552ZM142.896 47.0867C139.706 47.0867 137.289 47.4468 135.642 48.167C134.099 48.8873 133.019 50.1734 132.401 52.0254C131.784 53.8774 131.475 56.6555 131.475 60.3595V98.3259H141.816C152.002 98.3259 158.998 96.0623 162.805 91.5352C166.612 87.008 168.516 80.7317 168.516 72.7063C168.516 64.2693 166.509 57.8901 162.497 53.5688C158.484 49.2474 151.95 47.0867 142.896 47.0867Z" fill="#8D2A48"/>
</g>
<defs>
<clipPath id="clip0">
<rect width="200" height="200" fill="white"/>
</clipPath>
</defs>
</svg>
