<svg width="512" height="512" viewBox="0 0 512 512" fill="none" xmlns="http://www.w3.org/2000/svg">
<path d="M132.542 384C130.89 384 130.065 384 128.413 384C125.935 384 124.284 382.348 124.284 379.871C124.284 377.394 125.935 375.742 128.413 375.742C133.368 375.742 138.323 375.742 143.277 374.916C145.755 374.916 147.406 376.568 147.406 378.219C147.406 380.697 145.755 382.348 144.103 382.348C140.8 384 136.671 384 132.542 384ZM112.723 382.348C106.942 381.523 101.161 379.871 96.2065 379.045C93.729 378.219 92.9032 376.568 93.729 374.09C94.5549 372.439 96.2065 370.787 98.6839 371.613C103.639 373.265 108.594 374.09 113.548 374.916C116.026 374.916 116.852 377.394 116.852 379.045C116.026 380.697 114.374 382.348 112.723 382.348ZM159.794 380.697C158.142 380.697 156.49 379.871 155.665 377.394C154.839 374.916 156.49 373.264 158.968 372.439C163.923 371.613 168.877 369.961 173.832 368.31C175.484 367.484 177.961 368.31 178.787 370.787C179.613 372.439 178.787 374.916 176.31 375.742C171.355 377.394 166.4 379.045 160.619 380.697C160.619 380.697 159.794 380.697 159.794 380.697ZM82.9936 373.265C82.1678 373.265 82.1678 373.265 81.3419 373.265C76.3871 370.787 71.4323 368.31 67.3032 365.832C65.6516 365.006 64.8258 362.529 65.6516 360.052C66.4774 358.4 68.9548 357.574 71.4323 358.4C75.5613 360.877 80.5161 363.355 84.6452 365.006C86.2968 365.832 87.9484 368.31 86.2968 369.961C85.471 372.439 83.8194 373.265 82.9936 373.265ZM189.523 369.961C187.871 369.961 187.045 369.135 186.219 367.484C185.394 365.832 186.219 363.355 187.871 362.529C192.826 360.052 196.955 357.574 201.084 354.271C202.735 353.445 205.213 353.445 206.865 355.097C207.69 356.748 207.69 359.226 206.039 360.877C201.91 364.181 196.955 366.658 192 369.135C190.348 369.961 189.523 369.961 189.523 369.961ZM55.7419 357.574C54.9161 357.574 54.0903 357.574 53.2645 356.748C49.1355 353.445 45.0065 350.142 40.8774 346.013C39.2258 344.361 39.2258 341.884 40.8774 340.232C42.529 338.581 45.0065 338.581 46.6581 340.232C50.7871 343.535 54.0903 346.839 58.2194 350.142C59.871 351.794 59.871 354.271 59.0452 355.923C58.2194 356.748 56.5677 357.574 55.7419 357.574ZM215.123 352.619C214.297 352.619 212.645 351.794 211.819 350.968C210.168 349.316 210.168 346.839 211.819 345.187C215.948 341.884 219.252 337.755 222.555 334.452C224.206 332.8 226.684 332.8 228.335 334.452C229.987 336.103 229.987 338.581 228.335 340.232C225.032 344.361 220.903 348.49 216.774 351.794C216.774 351.794 215.948 352.619 215.123 352.619ZM33.4452 335.277C32.6194 335.277 30.9677 334.452 30.1419 333.626C26.8387 329.497 23.5355 324.542 21.0581 320.413C20.2323 318.761 20.2323 316.284 22.7097 314.632C25.1871 313.806 27.6645 313.806 28.4903 316.284C30.9677 320.413 34.271 324.542 36.7484 328.671C38.4 330.323 37.5742 332.8 35.9226 334.452C35.0968 334.452 34.271 335.277 33.4452 335.277ZM235.768 328.671C234.942 328.671 234.116 328.671 233.29 327.845C231.639 327.019 230.813 324.542 232.465 322.065C234.942 317.935 238.245 313.806 239.897 308.852C240.723 307.2 243.2 306.374 244.852 307.2C246.503 308.026 247.329 310.503 246.503 312.155C244.026 317.11 241.548 322.065 238.245 326.194C238.245 327.845 236.594 328.671 235.768 328.671ZM17.7548 308.026C16.1032 308.026 14.4516 307.2 14.4516 305.548C11.9742 300.594 10.3226 295.639 9.49677 289.858C8.67097 287.381 10.3226 285.729 11.9742 284.903C14.4516 284.077 16.1032 285.729 16.929 287.381C18.5806 292.335 20.2323 297.29 21.8839 301.419C22.7097 303.071 21.8839 305.548 19.4065 306.374C19.4065 308.026 18.5806 308.026 17.7548 308.026ZM249.806 300.594C248.981 300.594 248.981 300.594 248.155 300.594C246.503 299.768 244.852 297.29 245.677 295.639C247.329 290.684 248.981 285.729 249.806 280.774C250.632 278.297 252.284 277.471 254.761 277.471C257.239 278.297 258.065 279.948 258.065 282.426C257.239 287.381 255.587 293.161 253.935 298.116C253.11 299.768 251.458 300.594 249.806 300.594ZM9.49677 277.471C7.84516 277.471 6.19355 275.819 5.36774 274.168C4.54194 269.213 4.54194 264.258 3.71613 259.303C4.54194 256.826 6.19355 256 8.67097 256C11.1484 256 12.8 256.826 12.8 258.477C12.8 263.432 13.6258 268.387 13.6258 273.342C13.6258 275.819 12.8 277.471 9.49677 277.471C9.49677 277.471 10.3226 277.471 9.49677 277.471ZM256.413 270.039C255.587 270.039 255.587 270.039 256.413 270.039C253.935 270.039 252.284 267.561 252.284 265.91C252.284 262.606 252.284 259.303 252.284 256C252.284 254.348 252.284 251.871 252.284 250.219C252.284 247.742 253.935 246.09 256.413 246.09C258.89 246.09 260.542 247.742 260.542 250.219C260.542 251.871 260.542 254.348 260.542 256C260.542 259.303 260.542 262.606 260.542 265.91C259.716 268.387 258.065 270.039 256.413 270.039ZM9.49677 246.09C9.49677 246.09 8.67097 246.09 9.49677 246.09C7.01935 246.09 5.36774 243.613 5.36774 241.961C6.19355 236.181 7.01935 231.226 7.84516 226.271C8.67097 223.794 11.1484 222.142 12.8 222.968C15.2774 223.794 16.1032 225.445 16.1032 227.923C15.2774 232.877 13.6258 237.832 13.6258 242.787C12.8 244.439 11.1484 246.09 9.49677 246.09ZM254.761 238.658C253.11 238.658 251.458 237.006 250.632 235.355C249.806 230.4 248.155 225.445 247.329 220.49C246.503 218.839 248.155 216.361 249.806 215.535C252.284 214.71 253.936 216.361 254.761 218.013C256.413 222.968 257.239 228.748 258.89 233.703C258.89 236.181 257.239 237.832 254.761 238.658ZM16.929 215.535C16.1032 215.535 16.1032 215.535 15.2774 215.535C13.6258 214.71 11.9742 212.232 12.8 210.581C14.4516 205.626 16.929 200.671 19.4065 195.716C20.2323 194.065 22.7097 193.239 24.3613 194.065C26.0129 194.89 26.8387 197.368 26.0129 199.019C23.5355 203.148 21.8839 208.103 19.4065 213.058C19.4065 214.71 18.5806 215.535 16.929 215.535ZM245.677 208.103C244.026 208.103 242.374 207.277 242.374 205.626C239.897 200.671 237.419 196.542 234.942 192.413C234.116 190.761 234.116 188.284 236.594 186.632C238.245 185.806 240.723 185.806 242.374 188.284C244.852 193.239 248.155 197.368 249.806 202.323C250.632 203.974 249.806 206.452 248.155 207.277C246.503 208.103 245.677 208.103 245.677 208.103ZM31.7935 188.284C30.9677 188.284 30.1419 188.284 29.3161 187.458C27.6645 185.806 26.8387 183.329 28.4903 181.677C31.7936 177.548 35.0968 173.419 38.4 169.29C40.0516 167.639 42.529 167.639 44.1806 169.29C45.8323 170.942 45.8323 173.419 44.1806 175.071C40.8774 179.2 37.5742 182.503 34.271 186.632C34.271 187.458 32.6194 188.284 31.7935 188.284ZM228.335 181.677C227.51 181.677 225.858 180.852 225.032 180.026C221.729 175.897 218.426 172.594 215.123 168.465C213.471 166.813 213.471 164.335 215.123 162.684C216.774 161.032 219.252 161.032 220.903 162.684C225.032 166.813 228.335 170.116 231.639 174.245C233.29 175.897 232.465 178.374 230.813 180.026C230.813 181.677 229.987 181.677 228.335 181.677ZM52.4387 165.161C51.6129 165.161 49.9613 164.335 49.1355 163.51C47.4839 161.858 48.3097 159.381 49.9613 157.729C54.0903 154.426 58.2194 151.123 63.1742 147.819C64.8258 146.994 67.3032 146.994 68.9548 148.645C69.7807 150.297 69.7807 152.774 68.129 154.426C64 156.903 59.871 160.206 55.7419 163.51C54.9161 164.335 54.0903 165.161 52.4387 165.161ZM206.039 160.206C205.213 160.206 204.387 160.206 203.561 159.381C199.432 156.077 195.303 153.6 190.348 151.123C188.697 150.297 187.871 147.819 188.697 146.168C189.523 144.516 192 143.69 193.652 144.516C198.606 146.994 202.735 150.297 207.69 153.6C209.342 155.252 210.168 157.729 208.516 159.381C208.516 159.381 206.865 160.206 206.039 160.206ZM78.8645 147.819C77.2129 147.819 76.3871 146.994 75.5613 145.342C74.7355 143.69 75.5613 141.213 77.2129 140.387C82.1678 137.91 87.1226 136.258 92.0774 134.606C93.729 133.781 96.2065 135.432 97.0323 137.084C97.8581 139.561 96.2065 141.213 94.5548 142.039C89.6 143.69 84.6452 145.342 80.5161 147.819C80.5161 147.819 79.6903 147.819 78.8645 147.819ZM178.787 144.516C177.961 144.516 177.961 144.516 177.135 144.516C172.181 142.865 167.226 141.213 162.271 139.561C159.794 138.735 158.968 137.084 159.794 134.606C160.619 132.129 162.271 131.303 164.748 132.129C169.703 133.781 175.484 135.432 180.439 137.084C182.09 137.91 183.742 140.387 182.916 142.039C181.265 143.69 180.439 144.516 178.787 144.516ZM109.419 137.91C107.768 137.91 106.116 136.258 105.29 134.606C105.29 132.129 106.116 130.477 108.594 129.652C113.548 128.826 119.329 128 124.284 128C125.935 128 128.413 129.652 128.413 131.303C128.413 129.652 130.065 128 132.542 128C138.323 128 143.277 128 149.058 128.826C151.535 128.826 152.361 131.303 152.361 132.955C152.361 135.432 149.884 136.258 148.232 136.258C143.277 135.432 138.323 135.432 133.368 135.432C131.716 135.432 130.065 133.781 129.239 132.129C129.239 133.781 127.587 135.432 125.935 135.432C120.155 136.258 114.374 137.084 109.419 137.91Z" fill="white" fill-opacity="0.36"/>
<path d="M380.284 384C378.632 384 377.806 384 376.155 384C373.677 384 372.026 382.348 372.026 379.871C372.026 377.394 373.677 375.742 376.155 375.742C381.11 375.742 386.065 375.742 391.019 374.916C393.497 374.916 395.148 376.568 395.148 378.219C395.148 380.697 393.497 382.348 391.845 382.348C388.542 384 384.413 384 380.284 384ZM360.465 382.348C354.684 381.523 348.903 379.871 343.948 379.045C342.297 378.219 340.645 376.568 341.471 374.09C342.297 372.439 343.948 370.787 346.426 371.613C351.381 373.265 356.335 374.09 361.29 374.916C363.768 374.916 364.594 377.394 364.594 379.045C364.594 380.697 362.942 382.348 360.465 382.348ZM407.535 380.697C405.884 380.697 404.232 379.045 403.406 377.394C402.581 374.916 404.232 373.264 406.71 372.439C411.665 371.613 416.619 369.961 421.574 368.31C423.226 367.484 425.703 368.31 426.529 370.787C427.355 372.439 426.529 374.916 424.052 375.742C419.097 377.394 413.316 379.045 408.361 380.697H407.535ZM330.735 373.265C329.91 373.265 329.91 373.265 329.084 373.265C324.129 370.787 319.174 368.31 315.045 365.832C313.394 365.006 312.568 362.529 313.394 360.052C314.219 358.4 316.697 357.574 319.174 358.4C323.303 360.877 328.258 363.355 332.387 365.006C334.039 365.832 334.865 368.31 334.039 369.961C333.213 372.439 332.387 373.265 330.735 373.265ZM437.265 369.961C435.613 369.961 434.787 369.135 433.961 367.484C433.135 365.832 433.961 363.355 435.613 362.529C439.742 360.052 444.697 357.574 448.826 354.271C450.477 353.445 452.955 353.445 454.606 355.097C455.432 356.748 455.432 359.226 453.781 360.877C449.652 364.181 444.697 366.658 439.742 369.135C438.09 369.961 438.09 369.961 437.265 369.961ZM303.484 357.574C302.658 357.574 301.832 357.574 301.006 356.748C296.877 353.445 292.748 350.142 288.619 346.013C286.968 344.361 286.968 341.884 288.619 340.232C290.271 338.581 292.748 338.581 294.4 340.232C297.703 343.535 301.832 346.839 305.961 350.142C307.613 351.794 307.613 354.271 306.787 355.923C305.961 356.748 305.135 357.574 303.484 357.574ZM462.865 352.619C462.039 352.619 460.387 351.794 459.561 350.968C457.91 349.316 457.91 346.839 459.561 345.187C463.69 341.884 466.994 337.755 470.297 334.452C471.948 332.8 474.426 332.8 476.077 334.452C477.729 336.103 477.729 338.581 476.077 340.232C472.774 344.361 468.645 348.49 464.516 351.794C464.516 351.794 463.69 352.619 462.865 352.619ZM282.013 335.277C281.187 335.277 279.535 334.452 278.71 333.626C275.406 329.497 272.103 324.542 269.626 320.413C268.8 318.761 268.8 316.284 271.277 314.632C272.929 313.806 275.406 313.806 277.058 316.284C279.535 320.413 282.839 324.542 285.316 328.671C286.968 330.323 286.142 332.8 284.49 334.452C283.665 334.452 282.839 335.277 282.013 335.277ZM483.51 328.671C482.684 328.671 481.858 328.671 481.032 327.845C479.381 327.019 478.555 324.542 480.206 322.065C482.684 317.935 485.987 313.806 487.639 308.852C488.465 307.2 490.942 306.374 492.594 307.2C494.245 308.026 495.071 310.503 494.245 312.155C491.768 317.11 489.29 322.065 485.987 326.194C485.987 327.845 485.161 328.671 483.51 328.671ZM266.323 308.026C264.671 308.026 263.019 307.2 263.019 305.548C260.542 300.594 258.89 295.639 258.065 289.858C257.239 287.381 258.89 285.729 260.542 284.903C263.019 284.077 264.671 285.729 265.497 287.381C267.148 292.335 268.8 297.29 270.452 301.419C271.277 303.071 270.452 305.548 267.974 306.374C267.148 308.026 266.323 308.026 266.323 308.026ZM497.548 300.594C496.723 300.594 496.723 300.594 495.897 300.594C494.245 299.768 492.594 297.29 493.419 295.639C495.071 290.684 496.723 285.729 497.548 280.774C498.374 278.297 500.026 277.471 502.503 277.471C504.981 278.297 505.806 279.948 505.806 282.426C504.981 287.381 503.329 293.161 501.677 298.116C500.852 299.768 499.2 300.594 497.548 300.594ZM257.239 277.471C255.587 277.471 253.935 275.819 253.11 274.168C252.284 269.213 252.284 264.258 251.458 259.303C251.458 256.826 253.11 256 255.587 256C258.065 256 259.716 256.826 259.716 258.477C259.716 263.432 260.542 268.387 260.542 273.342C262.194 275.819 260.542 277.471 257.239 277.471C258.065 277.471 258.065 277.471 257.239 277.471ZM504.155 270.039C501.677 270.039 500.026 267.561 500.026 265.91C500.026 262.606 500.026 259.303 500.026 256C500.026 254.348 500.026 251.871 500.026 250.219C500.026 247.742 501.677 246.09 504.155 246.09C506.632 246.09 508.284 247.742 508.284 250.219C508.284 251.871 508.284 254.348 508.284 256C508.284 259.303 508.284 262.606 508.284 265.91C507.458 268.387 505.806 270.039 504.155 270.039ZM257.239 246.09C254.761 246.09 253.11 243.613 253.11 241.961C253.935 236.181 254.761 231.226 255.587 226.271C256.413 223.794 258.065 222.968 260.542 222.968C263.019 223.794 263.845 225.445 263.845 227.923C263.019 232.877 261.368 237.832 261.368 242.787C260.542 244.439 258.89 246.09 257.239 246.09ZM502.503 238.658C500.852 238.658 499.2 237.006 498.374 235.355C497.548 230.4 495.897 225.445 495.071 220.49C494.245 218.839 495.897 216.361 497.548 215.535C500.026 214.71 501.677 216.361 502.503 218.013C504.155 222.968 504.981 228.748 506.632 233.703C506.632 236.181 504.981 237.832 502.503 238.658C502.503 238.658 503.329 238.658 502.503 238.658ZM264.671 215.535C263.845 215.535 263.845 215.535 263.019 215.535C261.368 214.71 259.716 212.232 260.542 210.581C262.194 205.626 264.671 200.671 267.148 195.716C267.974 194.065 270.452 193.239 272.103 194.065C273.755 194.89 274.581 197.368 273.755 199.019C271.277 203.148 269.626 208.103 267.148 213.058C267.974 214.71 266.323 215.535 264.671 215.535ZM493.419 208.103C491.768 208.103 490.116 207.277 490.116 205.626C487.639 200.671 485.987 196.542 482.684 192.413C481.858 190.761 481.858 188.284 484.336 186.632C485.987 185.806 488.465 185.806 490.116 188.284C492.594 193.239 495.897 197.368 497.548 202.323C498.374 203.974 497.548 206.452 495.897 207.277C494.245 208.103 493.419 208.103 493.419 208.103ZM279.535 188.284C278.71 188.284 277.884 188.284 277.058 187.458C275.406 185.806 274.581 183.329 276.232 181.677C279.535 177.548 282.839 173.419 286.142 169.29C287.794 167.639 290.271 167.639 291.923 169.29C293.574 170.942 293.574 173.419 291.923 175.071C288.619 179.2 285.316 182.503 282.013 186.632C282.013 187.458 280.361 188.284 279.535 188.284ZM476.903 181.677C476.077 181.677 474.426 180.852 473.6 180.026C470.297 175.897 466.994 172.594 462.865 168.465C461.213 166.813 461.213 164.335 462.865 162.684C464.516 161.032 466.994 161.032 468.645 162.684C472.774 166.813 476.077 170.116 479.381 174.245C481.032 175.897 480.206 178.374 478.555 180.026C478.555 181.677 477.729 181.677 476.903 181.677ZM301.006 165.161C300.181 165.161 298.529 164.335 297.703 163.51C296.052 161.858 296.877 159.381 298.529 157.729C302.658 154.426 306.787 151.123 311.742 147.819C313.394 146.994 315.871 146.994 317.523 148.645C318.348 150.297 318.348 152.774 316.697 154.426C312.568 156.903 308.439 160.206 304.31 163.51C302.658 164.335 301.832 165.161 301.006 165.161ZM453.781 160.206C452.955 160.206 452.129 160.206 451.303 159.381C447.174 156.077 443.045 153.6 438.09 151.123C436.439 150.297 435.613 147.819 436.439 145.342C437.265 143.69 439.742 142.865 442.219 143.69C447.174 146.168 451.303 149.471 456.258 152.774C457.91 154.426 458.735 156.903 457.084 158.555C456.258 159.381 455.432 160.206 453.781 160.206ZM327.432 147.819C325.781 147.819 324.955 146.994 324.129 145.342C323.303 143.69 324.129 141.213 325.781 140.387C330.735 137.91 335.69 136.258 340.645 134.606C343.123 133.781 344.774 135.432 345.6 137.084C346.426 139.561 344.774 141.213 343.123 142.039C338.168 143.69 333.213 145.342 329.084 147.819C328.258 147.819 327.432 147.819 327.432 147.819ZM426.529 144.516C425.703 144.516 425.703 144.516 424.877 144.516C419.923 142.865 414.968 141.213 410.013 139.561C407.536 138.735 406.71 137.084 407.535 134.606C408.361 132.129 410.013 131.303 412.49 132.129C417.445 133.781 423.226 135.432 428.181 137.084C429.832 137.91 431.484 140.387 430.658 142.039C429.832 143.69 428.181 144.516 426.529 144.516ZM357.161 137.91C355.51 137.91 353.858 136.258 353.032 134.606C353.032 132.129 353.858 130.477 356.336 129.652C361.29 128.826 367.071 128 372.026 128C373.677 128 376.155 129.652 376.155 131.303C376.155 129.652 377.806 128 380.284 128C386.065 128 391.019 128 396.8 128.826C399.277 128.826 400.103 131.303 400.103 132.955C400.103 135.432 397.626 136.258 395.974 136.258C391.019 135.432 386.065 135.432 381.11 135.432C379.458 135.432 377.806 133.781 376.981 132.129C376.981 133.781 375.329 135.432 373.677 135.432C367.897 136.258 362.942 137.084 357.161 137.91Z" fill="white" fill-opacity="0.36"/>
<path d="M194.477 276.645C192 276.645 188.697 276.645 186.219 276.645C183.742 276.645 182.09 274.994 182.916 272.516C182.916 270.039 185.394 268.387 187.045 269.213C192 269.213 196.955 269.213 201.91 269.213C204.387 269.213 206.039 270.865 206.039 272.516C206.039 274.994 204.387 276.645 202.735 276.645C199.432 276.645 196.955 276.645 194.477 276.645ZM217.6 274.168C215.948 274.168 214.297 272.516 213.471 270.865C213.471 268.387 214.297 266.735 216.774 265.91C221.729 265.084 226.684 263.432 231.639 261.781C233.29 260.955 235.768 262.606 236.594 264.258C237.419 266.735 235.768 268.387 234.116 269.213C229.161 271.69 224.206 273.342 217.6 274.168C218.426 274.168 218.426 274.168 217.6 274.168ZM170.529 274.168C164.748 273.342 158.968 271.69 154.013 270.039C152.361 269.213 150.71 266.735 151.535 265.084C152.361 263.432 154.839 261.781 156.49 262.606C161.445 264.258 166.4 265.084 171.355 266.735C173.832 266.735 174.658 269.213 174.658 271.69C174.658 273.342 173.006 274.168 170.529 274.168ZM247.329 264.258C245.677 264.258 244.852 263.432 244.026 261.781C243.2 260.129 244.026 257.652 245.677 256.826C248.155 255.174 251.458 254.348 253.935 252.697C255.587 251.871 257.239 251.045 258.89 249.394C260.542 248.568 263.019 248.568 264.671 250.219C265.497 251.871 265.497 254.348 263.845 256C262.194 256.826 260.542 258.477 258.89 259.303C255.587 260.955 253.11 262.606 249.806 264.258C248.981 264.258 248.155 264.258 247.329 264.258ZM140.8 264.258C139.974 264.258 139.974 264.258 139.148 264.258C134.194 261.781 129.239 259.303 125.11 256C123.458 255.174 122.632 252.697 124.284 250.219C125.11 248.568 127.587 247.742 130.065 249.394C134.194 251.871 139.148 254.348 143.277 256.826C144.929 257.652 145.755 260.129 144.929 261.781C144.103 263.432 142.452 264.258 140.8 264.258ZM273.755 247.742C272.929 247.742 271.277 246.916 270.452 246.09C268.8 244.439 269.626 241.961 271.277 240.31C275.406 237.006 278.71 233.703 282.013 229.574C283.665 227.923 286.142 227.923 287.794 229.574C289.445 231.226 289.445 233.703 287.794 235.355C284.49 239.484 280.361 242.787 276.232 246.916C276.232 247.742 274.581 247.742 273.755 247.742ZM114.374 247.742C113.548 247.742 112.723 247.742 111.897 246.916C107.768 243.613 103.639 239.484 100.335 235.355C98.6839 233.703 98.6839 231.226 100.335 229.574C101.987 227.923 104.465 227.923 106.116 229.574C109.419 233.703 113.548 237.006 116.852 240.31C118.503 241.961 118.503 244.439 117.677 246.09C116.852 246.916 116.026 247.742 114.374 247.742ZM295.226 224.619C294.4 224.619 293.574 224.619 292.748 223.794C291.097 222.142 290.271 220.49 291.923 218.013C295.226 213.884 297.703 209.755 300.181 204.8C301.006 203.148 303.484 202.323 305.135 203.148C306.787 203.974 307.613 206.452 306.787 208.103C304.31 213.058 301.006 217.187 298.529 222.142C297.703 223.794 296.877 224.619 295.226 224.619ZM93.729 224.619C92.9032 224.619 91.2516 223.794 90.4258 222.968C87.9484 219.665 86.2968 216.361 83.8194 213.058C82.9935 212.232 82.1677 210.581 82.1677 209.755C81.3419 208.103 82.1677 205.626 83.8194 204.8C85.471 203.974 87.9484 204.8 88.7742 206.452C89.6 207.277 90.4258 208.929 90.4258 209.755C92.0774 213.058 94.5548 216.361 96.2065 219.665C97.8581 221.316 97.0323 223.794 95.3806 225.445C94.5548 224.619 94.5548 224.619 93.729 224.619ZM310.09 196.542C309.265 196.542 309.265 196.542 308.439 196.542C306.787 195.716 305.135 193.239 305.961 191.587C307.613 186.632 309.265 181.677 310.09 176.723C310.916 174.245 312.568 173.419 315.045 173.419C317.523 174.245 318.348 175.897 318.348 178.374C316.697 183.329 315.045 189.11 313.394 194.065C313.394 195.716 311.742 196.542 310.09 196.542ZM78.8645 196.542C77.2129 196.542 75.5613 195.716 75.5613 194.065C73.9097 189.11 72.2581 184.155 70.6065 178.374C69.7807 175.897 71.4323 174.245 73.0839 173.419C75.5613 172.594 77.2129 174.245 78.0387 175.897C78.8645 180.852 80.5161 185.806 82.1677 190.761C82.9936 192.413 82.1677 194.89 79.6903 195.716C79.6903 196.542 78.8645 196.542 78.8645 196.542ZM317.523 165.987C315.045 165.987 313.394 163.51 313.394 161.858C314.219 157.729 314.219 152.774 314.219 148.645V145.342C314.219 142.865 315.871 140.387 318.348 140.387C320.826 140.387 322.477 143.69 322.477 145.342V147.819C322.477 152.774 322.477 157.729 321.652 162.684C321.652 164.335 320 165.987 317.523 165.987ZM71.4323 165.161C69.7806 165.161 68.129 164.335 67.3032 161.858C66.4774 157.729 66.4774 152.774 66.4774 148.645V145.342C66.4774 142.865 68.129 140.387 70.6065 140.387C73.0839 140.387 74.7355 143.69 74.7355 145.342V147.819C74.7355 151.948 74.7355 156.077 75.5613 161.032C75.5613 163.51 73.9097 165.161 71.4323 165.161ZM317.523 134.606C315.871 134.606 314.219 132.955 313.394 131.303C312.568 126.348 311.742 121.394 310.09 116.439C309.265 113.961 310.916 112.31 312.568 111.484C315.045 110.658 316.697 112.31 317.523 113.961C319.174 118.916 320 124.697 320.826 129.652C321.652 132.955 320 134.606 317.523 134.606ZM71.4323 134.606C68.9548 134.606 67.3032 132.129 67.3032 130.477C68.129 125.523 68.9548 119.742 70.6065 114.787C71.4323 112.31 73.0839 111.484 75.5613 112.31C78.0387 113.135 78.8645 114.787 78.0387 117.265C76.3871 122.219 75.5613 127.174 74.7355 132.129C75.5613 133.781 73.9097 134.606 71.4323 134.606ZM308.439 104.877C306.787 104.877 305.135 104.052 305.135 102.4C303.484 97.4452 301.006 93.3161 298.529 88.3613C297.703 86.7097 297.703 85.0581 299.355 83.4065C297.703 84.2323 296.052 83.4065 295.226 81.7548C292.748 77.6258 289.445 73.4968 286.142 69.3677C284.49 67.7161 285.316 65.2387 286.142 63.5871C287.794 61.9355 290.271 62.7613 291.923 63.5871C295.226 67.7161 298.529 71.8452 301.832 76.8C302.658 78.4516 302.658 80.1032 301.006 81.7548C302.658 80.929 305.135 81.7549 305.961 83.4065C308.439 88.3613 310.916 93.3161 313.394 98.271C314.219 99.9226 313.394 102.4 310.916 103.226C310.09 104.877 309.265 104.877 308.439 104.877ZM80.5161 104.877C79.6903 104.877 79.6903 104.877 78.8645 104.877C77.2129 104.052 75.5613 101.574 76.3871 99.9226C78.8645 94.9678 80.5161 90.0129 83.8194 85.0581C84.6452 83.4065 87.1226 82.5807 89.6 83.4065C91.2516 84.2323 92.0774 86.7097 91.2516 89.1871C88.7742 93.3161 86.2968 98.271 84.6452 103.226C82.9936 104.052 81.3419 104.877 80.5161 104.877ZM96.2065 77.6258C95.3806 77.6258 94.5548 77.6258 93.729 76.8C92.0774 75.1484 92.0774 72.671 92.9032 71.0194C96.2065 66.8903 99.5097 62.7613 103.639 58.6323C105.29 56.9807 107.768 56.9807 109.419 58.6323C111.071 60.2839 111.071 62.7613 109.419 64.4129C106.116 67.7161 102.813 71.8452 99.5097 75.9742C97.8581 76.8 97.0323 77.6258 96.2065 77.6258ZM277.058 60.2839C276.232 60.2839 275.406 60.2839 274.581 59.4581C270.452 56.1548 267.148 52.8516 263.019 50.3742C261.368 48.7226 260.542 47.071 262.194 44.5936C263.845 42.9419 265.497 42.1161 267.974 43.7678C272.103 47.071 277.058 50.3742 280.361 53.6774C282.013 55.329 282.013 57.8065 280.361 59.4581C279.535 59.4581 278.71 60.2839 277.058 60.2839ZM117.677 55.329C116.852 55.329 115.2 54.5032 114.374 53.6774C112.723 52.0258 113.548 49.5484 115.2 47.8968C119.329 44.5936 124.284 41.2903 129.239 38.8129C130.89 37.9871 133.368 37.9871 135.019 40.4645C135.845 42.1161 135.845 44.5936 133.368 46.2452C129.239 48.7226 125.11 52.0258 120.981 54.5032C119.329 54.5032 118.503 55.329 117.677 55.329ZM251.458 42.1161C250.632 42.1161 250.632 42.1161 249.806 41.2903C245.677 38.8129 240.723 37.1613 235.768 35.5097C234.116 34.6839 232.465 32.2065 233.29 30.5548C234.116 28.9032 236.594 27.2516 238.245 28.0774C243.2 29.729 248.155 32.2065 253.11 34.6839C254.761 35.5097 255.587 37.9871 254.761 39.6387C253.935 41.2903 253.11 42.1161 251.458 42.1161ZM144.929 38.8129C143.277 38.8129 141.626 37.9871 141.626 36.3355C140.8 34.6839 141.626 32.2065 143.277 31.3807C148.232 28.9032 153.187 27.2516 158.142 25.6C160.619 24.7742 162.271 26.4258 163.097 28.0774C163.923 30.5549 163.097 33.0323 160.619 33.0323C155.665 34.6839 150.71 36.3355 146.581 37.9871C145.755 38.8129 145.755 38.8129 144.929 38.8129ZM221.729 31.3807H220.903C215.948 30.5548 210.994 29.729 206.039 28.9032C203.561 28.9032 201.91 26.4258 202.735 24.7742C202.735 22.2968 205.213 21.471 206.865 21.471C211.819 22.2968 217.6 23.1226 222.555 23.9484C225.032 24.7742 225.858 26.4258 225.858 28.9032C225.032 30.5548 223.381 31.3807 221.729 31.3807ZM174.658 29.729C173.006 29.729 171.355 28.0774 170.529 26.4258C170.529 23.9484 171.355 22.2968 173.832 22.2968C178.787 21.471 184.568 20.6452 190.348 20.6452C192 20.6452 194.477 22.2968 194.477 24.7742C194.477 27.2516 192.826 28.9032 190.348 28.9032C185.394 28.9032 180.439 28.9032 174.658 29.729C175.484 29.729 175.484 29.729 174.658 29.729Z" fill="white" fill-opacity="0.36"/>
<path d="M318.348 491.355C315.871 491.355 312.568 491.355 310.09 491.355C307.613 491.355 305.961 489.703 306.787 487.226C306.787 484.748 308.439 483.097 310.916 483.923C315.871 483.923 320.826 483.923 325.781 483.923C328.258 483.923 329.91 485.574 329.91 487.226C329.91 489.703 328.258 491.355 326.606 491.355C324.129 491.355 320.826 491.355 318.348 491.355ZM341.471 488.877C339.819 488.877 338.168 487.226 337.342 485.574C337.342 483.097 338.168 481.445 340.645 480.619C345.6 479.794 350.555 478.142 355.51 476.49C357.161 475.665 359.639 477.316 360.465 478.968C361.29 481.445 359.639 483.097 357.987 483.923C353.032 486.4 348.077 488.052 341.471 488.877C342.297 488.877 342.297 488.877 341.471 488.877ZM295.226 488.877C294.4 488.877 294.4 488.877 295.226 488.877C289.445 488.052 283.665 486.4 278.71 484.748C277.058 483.923 275.406 481.445 276.232 479.794C277.058 478.142 279.535 476.49 281.187 477.316C286.142 478.968 291.097 479.794 296.052 481.445C298.529 481.445 299.355 483.923 299.355 486.4C298.529 488.052 296.877 488.877 295.226 488.877ZM372.026 478.968C370.374 478.968 369.548 478.142 368.723 476.49C367.897 474.839 368.723 472.361 370.374 471.535C372.852 469.884 376.155 469.058 378.632 467.406C380.284 466.581 381.935 465.755 383.587 464.103C385.239 463.277 387.716 463.277 389.368 464.929C390.194 466.581 390.194 469.058 388.542 470.71C386.89 471.535 385.239 473.187 383.587 474.013C380.284 475.665 377.806 477.316 374.503 478.968C372.852 478.968 372.026 478.968 372.026 478.968ZM264.671 478.968C263.845 478.968 263.845 478.968 263.019 478.968C258.065 476.49 253.11 474.013 248.981 470.71C247.329 469.884 246.503 467.406 248.155 464.929C248.981 463.277 251.458 462.452 253.935 464.103C258.065 466.581 263.019 469.058 267.148 471.535C268.8 472.361 269.626 474.839 268.8 476.49C267.974 478.142 266.323 478.968 264.671 478.968ZM398.452 462.452C397.626 462.452 395.974 461.626 395.148 460.8C393.497 459.148 394.323 456.671 395.974 455.019C400.103 451.716 403.406 448.413 406.71 444.284C408.361 442.632 410.839 442.632 412.49 444.284C414.142 445.935 414.142 448.413 412.49 450.065C409.187 454.194 405.058 457.497 400.929 461.626C400.103 461.626 399.277 462.452 398.452 462.452ZM238.245 462.452C237.419 462.452 236.594 462.452 235.768 461.626C231.639 458.323 227.51 454.194 224.206 450.065C222.555 448.413 222.555 445.935 224.206 444.284C225.858 442.632 228.335 442.632 229.987 444.284C233.29 448.413 237.419 451.716 240.723 455.019C242.374 456.671 242.374 459.148 241.548 460.8C240.723 461.626 239.897 462.452 238.245 462.452ZM419.097 439.329C418.271 439.329 417.445 439.329 416.619 438.503C414.968 436.852 414.142 434.374 415.794 432.723C419.097 428.594 421.574 424.465 424.052 419.51C424.877 417.858 427.355 417.032 429.006 417.858C430.658 418.684 431.484 421.161 430.658 422.813C428.181 427.768 424.877 431.897 422.4 436.852C421.574 438.503 420.748 439.329 419.097 439.329ZM217.6 439.329C216.774 439.329 215.123 438.503 214.297 437.677C211.819 434.374 210.168 431.071 207.69 427.768C206.865 426.116 206.039 425.29 206.039 424.465C205.213 422.813 206.039 420.335 207.69 419.51C209.342 418.684 211.819 419.51 212.645 421.161C213.471 421.987 214.297 423.639 214.297 424.465C215.948 427.768 218.426 431.071 220.077 434.374C221.729 436.026 220.903 438.503 219.252 440.155C219.252 438.503 218.426 439.329 217.6 439.329ZM433.961 411.252C433.135 411.252 433.135 411.252 432.31 411.252C430.658 410.426 429.006 407.948 429.832 406.297C431.484 401.342 433.135 396.387 433.961 391.432C434.787 388.955 436.439 388.129 438.916 388.955C441.394 389.781 442.219 391.432 441.394 393.91C439.742 398.865 438.916 404.645 436.439 409.6C437.264 410.426 435.613 411.252 433.961 411.252ZM202.735 411.252C201.084 411.252 199.432 410.426 199.432 408.774C197.781 403.819 196.129 398.865 194.477 393.084C193.652 390.606 195.303 388.955 197.781 388.129C200.258 387.303 201.91 388.955 202.735 391.432C203.561 396.387 205.213 401.342 206.865 406.297C207.69 407.948 206.865 410.426 204.387 411.252C203.561 411.252 202.735 411.252 202.735 411.252ZM441.394 380.697C438.916 380.697 437.265 378.219 437.265 376.568C438.09 372.439 438.09 367.484 438.09 363.355V360.052C438.09 357.574 439.742 355.097 442.219 355.097C444.697 355.097 446.348 358.4 446.348 360.052V362.529C446.348 367.484 446.348 372.439 445.523 377.394C445.523 379.045 443.871 380.697 441.394 380.697ZM195.303 380.697C193.652 380.697 192 379.045 191.174 377.394C190.348 372.439 190.348 368.31 190.348 363.355V360.052C190.348 357.574 192 355.097 194.477 355.097C196.955 355.097 198.606 358.4 198.606 360.052V362.529C198.606 366.658 198.606 371.613 199.432 375.742C199.432 378.219 197.781 380.697 195.303 380.697ZM441.394 349.316C439.742 349.316 438.09 347.665 437.265 346.013C436.439 341.058 435.613 336.103 433.961 331.148C433.135 328.671 434.787 327.019 436.439 326.194C438.916 325.368 440.568 327.019 441.394 328.671C443.045 333.626 443.871 339.406 444.697 344.361C445.523 347.665 443.871 349.316 441.394 349.316ZM195.303 349.316C192.826 349.316 191.174 346.839 191.174 345.187C192 340.232 192.826 334.452 194.477 329.497C195.303 327.019 196.955 326.194 199.432 327.019C201.91 327.845 202.735 329.497 201.91 331.974C200.258 336.929 199.432 341.884 198.606 346.839C199.432 348.49 197.781 349.316 195.303 349.316ZM433.135 319.587C431.484 319.587 429.832 318.761 429.832 317.11C428.181 312.155 425.703 308.026 423.226 303.071C422.4 301.419 422.4 299.768 424.052 298.116C422.4 298.942 420.748 298.116 419.923 296.465C417.445 292.336 414.142 288.206 410.839 284.077C409.187 282.426 410.013 279.948 410.839 278.297C412.49 276.645 414.968 276.645 416.619 279.123C419.923 283.252 423.226 287.381 426.529 292.336C427.355 293.987 427.355 295.639 425.703 297.29C427.355 296.465 429.006 297.29 430.658 298.942C433.135 303.897 435.613 308.852 438.09 313.806C438.916 315.458 438.09 317.935 435.613 318.761C433.961 319.587 433.135 319.587 433.135 319.587ZM204.387 319.587C203.561 319.587 203.561 319.587 202.735 319.587C201.084 318.761 199.432 316.284 200.258 314.632C202.735 309.677 204.387 304.723 207.69 299.768C208.516 298.116 210.994 297.29 213.471 298.116C215.123 298.942 215.948 301.419 215.123 303.897C212.645 308.026 210.168 312.981 208.516 317.936C206.865 317.936 205.213 319.587 204.387 319.587ZM220.077 292.336C219.252 292.336 218.426 292.335 217.6 291.51C215.948 289.858 215.948 287.381 216.774 285.729C220.077 281.6 223.381 277.471 227.51 273.342C229.161 271.69 231.639 271.69 233.29 273.342C234.942 274.994 234.942 277.471 233.29 279.123C229.987 282.426 226.684 286.555 223.381 290.684C221.729 291.51 220.903 292.336 220.077 292.336ZM400.929 274.994C400.103 274.994 399.277 274.994 398.452 274.168C394.323 270.865 391.019 267.561 386.89 265.084C385.239 263.432 384.413 261.781 386.065 259.303C386.89 257.652 389.368 256.826 391.845 258.477C395.974 261.781 400.929 265.084 404.232 268.387C405.884 270.039 405.884 272.516 404.232 274.168C403.406 274.168 402.581 274.994 400.929 274.994ZM241.548 270.039C240.723 270.039 239.071 269.213 238.245 268.387C236.594 266.736 237.419 264.258 239.071 262.606C243.2 259.303 248.155 256 252.284 253.523C253.935 252.697 256.413 252.697 258.065 255.174C258.89 256.826 258.89 259.303 256.413 260.955C252.284 263.432 248.155 266.735 244.026 269.213C243.2 269.213 242.374 270.039 241.548 270.039ZM375.329 256.826C374.503 256.826 374.503 256.826 373.677 256C369.548 253.523 364.594 251.871 359.639 250.219C357.987 249.394 356.335 246.916 357.161 245.265C357.987 243.613 360.464 241.961 362.116 242.787C367.071 244.439 372.026 246.916 376.981 249.394C378.632 250.219 379.458 252.697 378.632 254.348C377.806 256 376.981 256.826 375.329 256.826ZM268.8 253.523C267.148 253.523 265.497 252.697 265.497 251.045C264.671 249.394 265.497 246.916 267.148 246.09C272.103 243.613 277.058 241.961 282.013 240.31C284.49 239.484 286.142 241.136 286.968 242.787C287.794 245.265 286.142 246.916 284.49 247.742C279.535 249.394 274.581 251.045 270.452 252.697C269.626 253.523 269.626 253.523 268.8 253.523ZM345.6 246.09H344.774C339.819 245.265 334.865 244.439 329.91 243.613C327.432 243.613 325.781 241.136 326.606 239.484C326.606 237.006 329.084 236.181 330.735 236.181C335.69 237.006 341.471 237.832 346.426 238.658C348.903 239.484 349.729 241.136 349.729 243.613C348.903 245.265 348.077 246.09 345.6 246.09ZM299.355 244.439C297.703 244.439 296.052 242.787 295.226 241.136C295.226 238.658 296.052 237.006 298.529 237.006C303.484 236.181 309.265 235.355 315.045 235.355C316.697 235.355 319.174 237.006 319.174 239.484C319.174 241.961 317.523 243.613 315.045 243.613C310.09 243.613 304.31 243.613 299.355 244.439Z" fill="white" fill-opacity="0.36"/>
<path d="M194.477 491.355C192 491.355 190.348 489.703 190.348 487.226C190.348 484.748 192 483.097 194.477 483.097C199.432 483.097 204.387 483.097 209.342 482.271C211.819 482.271 213.471 483.097 213.471 485.574C213.471 488.052 211.819 489.703 210.168 489.703C205.213 491.355 199.432 491.355 194.477 491.355ZM178.787 490.529C178.787 490.529 177.961 490.529 178.787 490.529C173.006 489.703 167.226 488.877 162.271 487.226C159.794 486.4 158.968 484.748 159.794 482.271C160.619 479.794 162.271 478.968 164.748 479.794C169.703 481.445 174.658 482.271 179.613 483.097C182.09 483.097 182.916 485.574 182.916 487.226C182.09 488.877 180.439 490.529 178.787 490.529ZM225.858 487.226C224.206 487.226 222.555 486.4 221.729 483.923C220.903 481.445 222.555 479.794 224.206 478.968C229.161 477.316 234.116 476.49 239.071 474.013C240.723 473.187 243.2 474.013 244.026 476.49C244.852 478.142 244.026 480.619 241.548 481.445C236.594 483.097 231.639 484.748 225.858 486.4C225.858 487.226 225.858 487.226 225.858 487.226ZM148.232 482.271C147.406 482.271 147.406 482.271 146.581 482.271C141.626 480.619 136.671 478.142 131.716 475.665C130.065 474.839 129.239 472.361 130.065 470.71C130.89 469.058 133.368 468.232 135.019 469.058C139.148 471.535 144.103 474.013 149.058 475.665C150.71 476.49 152.361 478.968 151.535 480.619C151.535 481.445 149.884 482.271 148.232 482.271ZM254.761 475.665C253.11 475.665 252.284 474.839 251.458 474.013C250.632 472.361 251.458 469.884 253.11 469.058C257.239 466.581 262.194 464.103 266.323 460.8C267.974 459.148 270.452 459.974 272.103 461.626C273.755 463.277 272.929 465.755 271.277 467.406C267.148 470.71 262.194 473.187 257.239 476.49C255.587 475.665 255.587 475.665 254.761 475.665ZM120.981 467.406C120.155 467.406 119.329 467.406 118.503 466.581C114.374 463.277 110.245 459.974 106.116 455.845C104.465 454.194 104.465 451.716 106.116 450.065C107.768 448.413 110.245 448.413 111.897 450.065C115.2 453.368 119.329 456.671 123.458 459.974C125.11 461.626 125.935 464.103 124.284 465.755C123.458 466.581 121.806 467.406 120.981 467.406ZM280.361 457.497C279.535 457.497 277.884 457.497 277.884 456.671C276.232 455.019 276.232 452.542 277.884 450.89C281.187 447.587 285.316 443.458 288.619 439.329C290.271 437.677 292.748 437.677 294.4 438.503C296.052 440.155 296.052 442.632 295.226 444.284C291.923 448.413 287.794 452.542 284.49 455.845C282.013 456.671 281.187 457.497 280.361 457.497ZM97.8581 445.11C97.0323 445.11 95.3806 444.284 94.5548 443.458C91.2516 439.329 87.9484 435.2 85.471 430.245C84.6452 428.594 84.6452 426.116 87.1226 424.465C88.7742 423.639 91.2516 423.639 92.9032 426.116C95.3806 430.245 98.6839 434.374 101.987 438.503C103.639 440.155 102.813 442.632 101.161 444.284C99.5097 445.11 98.6839 445.11 97.8581 445.11ZM299.355 432.723C298.529 432.723 297.703 432.723 297.703 431.897C296.052 431.071 295.226 428.594 296.052 426.116C296.877 425.29 297.703 423.639 297.703 422.813C299.355 419.51 301.006 416.206 302.658 412.903C303.484 411.252 305.961 410.426 307.613 411.252C309.265 412.077 310.09 414.555 309.265 416.206C307.613 419.51 305.961 423.639 303.484 426.942C302.658 427.768 301.832 429.419 301.006 430.245C302.658 431.897 301.006 432.723 299.355 432.723ZM81.3419 418.684C79.6903 418.684 78.0387 417.858 78.0387 416.206C75.5613 411.252 73.9097 406.297 72.2581 401.342C71.4323 398.865 73.0839 397.213 74.7355 396.387C77.2129 395.561 78.8645 397.213 79.6903 398.865C81.3419 403.819 82.9936 408.774 85.471 412.903C86.2968 414.555 85.471 417.032 83.8194 417.858C82.9935 418.684 82.1677 418.684 81.3419 418.684ZM312.568 403.819H311.742C309.265 402.994 308.439 401.342 309.265 398.865C310.916 393.91 311.742 388.955 312.568 384C312.568 381.523 315.045 380.697 316.697 380.697C319.174 380.697 320 383.174 320 384.826C319.174 389.781 317.523 395.561 315.871 400.516C315.871 402.994 314.219 403.819 312.568 403.819ZM72.2581 388.955C70.6065 388.955 68.9548 387.303 68.129 385.652C67.3032 379.871 66.4774 374.916 66.4774 369.136C66.4774 366.658 68.129 365.006 70.6065 365.006C72.2581 365.006 74.7355 366.658 74.7355 369.136C74.7355 374.09 75.5613 379.045 76.3871 384C76.3871 386.477 74.7355 388.129 72.2581 388.955C72.2581 388.955 73.0839 388.955 72.2581 388.955ZM318.348 373.265C315.871 373.265 314.219 371.613 314.219 369.136C314.219 367.484 314.219 365.006 314.219 363.355C314.219 360.052 314.219 356.748 314.219 353.445C314.219 350.968 315.871 349.316 317.523 349.316C320 349.316 321.652 350.968 321.652 352.619C321.652 355.923 321.652 359.226 321.652 362.529C321.652 364.181 321.652 366.658 321.652 368.31C322.477 371.613 320.826 373.265 318.348 373.265ZM70.6065 357.574C68.129 357.574 66.4774 355.097 66.4774 353.445C67.3032 348.49 67.3032 342.71 68.9548 337.755C69.7807 335.277 71.4323 334.452 73.9097 334.452C76.3871 335.277 77.2129 336.929 77.2129 339.406C76.3871 344.361 75.5613 349.316 74.7355 354.271C74.7355 355.923 73.0839 357.574 70.6065 357.574ZM315.871 341.884C314.219 341.884 312.568 340.232 311.742 338.581C310.916 333.626 309.265 328.671 307.613 323.716C306.787 322.065 307.613 319.587 310.09 318.761C311.742 317.935 314.219 318.761 315.045 321.239C316.697 326.194 318.348 331.974 319.174 336.929C320 339.406 318.348 341.058 315.871 341.884C315.871 341.884 316.697 341.884 315.871 341.884ZM77.2129 326.194C76.3871 326.194 76.3871 326.194 75.5613 326.194C73.9097 325.368 72.2581 322.89 73.0839 321.239C74.7355 316.284 77.2129 311.329 79.6903 306.374C80.5161 304.723 82.1677 303.897 83.8194 304.723C82.1677 303.897 82.1677 301.419 82.9936 299.768C85.471 294.813 88.7742 290.684 92.0774 286.555C93.729 284.903 96.2065 284.077 97.8581 285.729C99.5097 287.381 100.335 289.858 98.6839 291.51C95.3806 295.639 92.9032 299.768 90.4258 303.897C89.6 305.548 87.9484 306.374 86.2968 305.548C87.9484 306.374 87.9484 308.852 87.1226 310.503C84.6452 315.458 82.9936 319.587 81.3419 324.542C80.5161 325.368 78.8645 326.194 77.2129 326.194ZM305.961 312.155C304.31 312.155 303.484 311.329 302.658 309.677C300.181 304.723 297.703 300.594 295.226 296.465C294.4 294.813 294.4 292.336 296.052 290.684C297.703 289.858 300.181 289.858 301.832 291.51C305.135 295.639 307.613 300.594 310.09 305.548C310.916 307.2 310.09 309.677 308.439 310.503C306.787 312.155 305.961 312.155 305.961 312.155ZM288.619 285.729C287.794 285.729 286.142 284.903 285.316 284.077C282.013 279.948 278.71 276.645 274.581 273.342C272.929 271.69 272.929 269.213 274.581 267.561C276.232 265.91 278.71 265.91 280.361 267.561C284.49 270.865 288.619 274.994 291.923 279.123C293.574 280.774 293.574 283.252 291.923 284.903C290.271 285.729 289.445 285.729 288.619 285.729ZM106.116 279.948C105.29 279.948 104.465 279.948 103.639 279.123C101.987 277.471 101.987 274.994 103.639 273.342C107.768 269.213 111.897 265.91 116.026 262.606C117.677 260.955 120.155 261.781 121.806 263.432C123.458 265.084 122.632 267.561 120.981 269.213C116.852 272.516 113.548 275.819 109.419 279.123C107.768 279.948 106.942 279.948 106.116 279.948ZM264.671 265.084C263.845 265.084 263.019 265.084 262.194 264.258C259.716 262.606 257.239 260.955 253.935 259.303C252.284 258.477 250.632 257.652 248.981 256.826C247.329 256 246.503 253.523 247.329 251.871C248.155 250.219 250.632 249.394 252.284 250.219C253.935 251.045 255.587 251.871 257.239 252.697C260.542 254.348 263.019 256 265.497 258.477C267.148 260.129 267.974 261.781 266.323 264.258C267.148 264.258 266.323 265.084 264.671 265.084ZM130.89 260.955C129.239 260.955 128.413 260.129 127.587 259.303C126.761 257.652 126.761 255.174 129.239 253.523C134.194 251.045 138.323 248.568 143.277 246.09C144.929 245.265 147.406 246.09 148.232 247.742C149.058 249.394 148.232 251.871 146.581 252.697C141.626 254.348 137.497 256.826 133.368 259.303C132.542 260.955 131.716 260.955 130.89 260.955ZM236.594 251.045C235.768 251.045 235.768 251.045 234.942 251.045C229.987 249.394 225.032 247.742 220.077 246.916C217.6 246.09 216.774 244.439 216.774 241.961C217.6 239.484 219.252 238.658 221.729 238.658C226.684 239.484 232.465 241.136 237.419 243.613C239.071 244.439 240.723 246.916 239.897 248.568C239.897 249.394 238.245 251.045 236.594 251.045ZM159.794 248.568C158.142 248.568 156.49 247.742 155.665 246.09C154.839 244.439 156.49 241.961 158.142 241.136C163.097 239.484 168.877 238.658 173.832 237.832C176.31 237.832 177.961 238.658 177.961 241.136C177.961 243.613 177.135 245.265 174.658 245.265C169.703 246.09 164.748 246.916 159.794 248.568C159.794 248.568 160.619 248.568 159.794 248.568ZM206.039 243.613C200.258 242.787 195.303 242.787 190.348 242.787C187.871 242.787 186.219 241.136 186.219 238.658C186.219 236.181 187.871 234.529 190.348 234.529C195.303 234.529 201.084 234.529 206.865 235.355C209.342 235.355 210.994 237.832 210.168 239.484C210.168 241.961 208.516 243.613 206.039 243.613Z" fill="white" fill-opacity="0.36"/>
<path d="M318.348 276.645C316.697 276.645 314.219 276.645 314.219 274.168C314.219 271.69 315.871 272.516 318.348 272.516C323.303 272.516 328.258 270.039 333.213 270.039C335.69 270.039 337.342 270.039 337.342 272.516C337.342 274.994 335.69 275.819 334.039 276.645C329.084 276.645 324.129 276.645 318.348 276.645ZM302.658 275.819C302.658 275.819 301.832 275.819 302.658 275.819C296.877 274.994 291.097 274.168 286.142 272.516C283.665 271.69 282.839 270.039 283.664 267.561C284.49 265.084 286.142 264.258 288.619 265.084C293.574 266.735 298.529 267.561 303.484 268.387C305.961 268.387 306.787 270.865 306.787 272.516C305.961 274.168 304.31 275.819 302.658 275.819ZM349.729 272.516C348.077 272.516 346.426 271.69 345.6 269.213C344.774 266.735 346.426 265.084 348.077 264.258C353.032 262.606 357.987 261.781 362.942 259.303C364.594 258.477 367.071 259.303 367.897 261.781C368.723 263.432 367.897 265.91 365.419 266.735C360.465 268.387 355.51 270.039 349.729 271.69C349.729 272.516 349.729 272.516 349.729 272.516ZM272.103 267.561C271.277 267.561 271.277 267.561 270.452 267.561C265.497 265.91 260.542 263.432 255.587 260.955C253.935 260.129 253.11 257.652 253.935 256C254.761 254.348 257.239 253.523 258.89 254.348C263.019 256.826 267.974 259.303 272.929 260.955C274.581 261.781 276.232 264.258 275.406 265.91C275.406 266.735 273.755 267.561 272.103 267.561ZM378.632 260.955C376.981 260.955 376.155 260.129 375.329 259.303C374.503 257.652 375.329 255.174 376.981 254.348C381.11 251.871 386.065 249.394 390.194 246.09C391.845 244.439 394.323 245.265 395.974 246.916C397.626 248.568 396.8 251.045 395.148 252.697C391.019 256 386.065 258.477 381.11 261.781C380.284 260.955 379.458 260.955 378.632 260.955ZM244.852 252.697C244.026 252.697 243.2 252.697 242.374 251.871C238.245 248.568 234.116 245.265 229.987 241.135C228.335 239.484 228.335 237.006 229.987 235.355C231.639 233.703 234.116 233.703 235.768 235.355C239.071 238.658 243.2 241.961 247.329 245.265C248.981 246.916 249.806 249.394 248.155 251.045C247.329 251.871 245.677 252.697 244.852 252.697ZM404.232 242.787C403.406 242.787 401.755 242.787 401.755 241.961C400.103 240.31 400.103 237.832 401.755 236.181C405.058 232.877 409.187 228.748 412.49 224.619C414.142 222.968 416.619 222.968 418.271 223.794C419.923 225.445 419.923 227.923 419.097 229.574C415.794 233.703 411.665 237.832 408.361 241.135C405.884 241.961 405.058 242.787 404.232 242.787ZM221.729 230.4C220.903 230.4 219.252 229.574 218.426 228.748C215.123 224.619 211.819 220.49 209.342 215.535C208.516 213.884 208.516 211.406 210.994 209.755C212.645 208.929 215.123 208.929 216.774 211.406C219.252 215.535 222.555 219.665 225.858 223.794C227.51 225.445 226.684 227.923 225.032 229.574C223.381 230.4 222.555 230.4 221.729 230.4ZM424.052 218.013C423.226 218.013 422.4 218.013 422.4 217.187C420.748 216.361 419.923 213.884 420.748 211.406C421.574 210.581 422.4 208.929 422.4 208.103C424.052 204.8 425.703 201.497 427.355 198.194C428.181 196.542 430.658 195.716 432.31 196.542C433.961 197.368 434.787 199.845 433.961 201.497C432.31 204.8 430.658 208.929 428.181 212.232C427.355 213.058 426.529 214.71 425.703 215.535C426.529 217.187 424.877 218.013 424.052 218.013ZM205.213 203.974C203.561 203.974 201.91 203.148 201.91 201.497C199.432 196.542 197.781 191.587 196.129 186.632C195.303 184.981 196.955 182.503 198.606 181.677C201.084 180.852 202.735 182.503 203.561 184.155C205.213 189.11 206.865 194.065 209.342 198.194C210.168 199.845 209.342 202.323 207.69 203.148C206.865 203.974 206.039 203.974 205.213 203.974ZM436.439 189.935H435.613C433.135 189.11 432.31 187.458 433.135 184.981C434.787 180.026 435.613 175.071 436.439 170.116C436.439 167.639 438.916 166.813 440.568 166.813C443.045 166.813 443.871 169.29 443.871 171.768C443.045 176.723 441.394 182.503 439.742 187.458C439.742 188.284 438.09 189.935 436.439 189.935ZM196.129 174.245C194.477 174.245 192.826 172.594 192 170.942C191.174 165.987 190.348 160.206 190.348 154.426C190.348 151.948 192 150.297 194.477 150.297C196.955 150.297 198.606 151.948 198.606 154.426C198.606 159.381 199.432 164.335 200.258 169.29C200.258 171.768 199.432 173.419 196.129 174.245C196.129 174.245 196.955 174.245 196.129 174.245ZM442.219 158.555C439.742 158.555 438.09 156.903 438.09 154.426C438.09 152.774 438.09 150.297 438.09 148.645C438.09 145.342 438.09 142.039 438.09 138.735C438.09 136.258 439.742 134.606 441.394 134.606C443.871 134.606 445.523 136.258 445.523 137.91C445.523 141.213 445.523 144.516 445.523 147.819C445.523 149.471 445.523 151.948 445.523 153.6C446.348 156.903 444.697 158.555 442.219 158.555ZM194.477 142.865C192 142.865 190.348 140.387 190.348 138.735C191.174 133.781 191.174 128 192.826 123.045C193.652 120.568 195.303 119.742 197.781 119.742C200.258 120.568 201.084 122.219 201.084 124.697C200.258 129.652 199.432 134.606 198.606 139.561C198.606 141.213 196.955 142.865 194.477 142.865ZM439.742 127.174C438.09 127.174 436.439 125.523 435.613 123.871C434.787 118.916 433.135 113.961 431.484 109.006C430.658 107.355 431.484 104.877 433.961 104.052C435.613 103.226 438.09 104.052 438.916 106.529C440.568 111.484 442.219 117.265 443.045 122.219C443.871 124.697 443.045 127.174 439.742 127.174C439.742 127.174 440.568 127.174 439.742 127.174ZM201.084 111.484C200.258 111.484 200.258 111.484 199.432 111.484C197.781 110.658 196.129 108.181 196.955 106.529C198.606 101.574 201.084 96.6194 203.561 91.6645C204.387 90.0129 206.039 89.1871 208.516 90.0129C206.865 89.1871 206.865 86.7097 207.69 85.0581C210.168 80.1032 213.471 75.9742 216.774 71.8452C218.426 70.1936 220.903 69.3678 222.555 71.0194C224.206 72.671 224.206 75.1484 223.381 76.8C220.077 80.929 217.6 85.0581 215.123 89.1871C214.297 90.8387 212.645 91.6645 210.994 90.8387C212.645 91.6645 212.645 94.142 211.819 95.7936C209.342 99.9226 207.69 104.877 206.039 109.832C204.387 110.658 202.735 111.484 201.084 111.484ZM429.832 97.4452C428.181 97.4452 427.355 96.6194 426.529 94.9678C424.052 90.8387 421.574 86.7097 418.271 82.5807C417.445 80.929 417.445 78.4516 419.097 76.8C420.748 75.9742 423.226 75.9742 424.877 77.6258C428.181 81.7548 430.658 86.7097 433.135 91.6645C433.961 93.3161 433.135 95.7936 431.484 96.6194C430.658 97.4452 429.832 97.4452 429.832 97.4452ZM412.49 71.0194C411.665 71.0194 410.013 70.1936 409.187 69.3677C405.884 65.2387 402.581 61.9355 398.452 58.6323C396.8 57.8065 396.8 55.329 398.452 53.6774C400.103 52.0258 402.581 52.0258 404.232 53.6774C408.361 56.9807 412.49 61.1097 415.794 65.2387C417.445 66.8903 417.445 69.3678 415.794 71.0194C414.142 71.0194 413.316 71.0194 412.49 71.0194ZM229.987 65.2387C229.161 65.2387 228.335 65.2387 227.51 64.4129C225.858 62.7613 225.858 60.2839 227.51 58.6323C231.639 54.5032 235.768 51.2 239.897 47.8968C241.548 46.2452 244.026 47.071 245.677 48.7226C247.329 50.3742 246.503 52.8516 244.852 54.5032C239.897 57.8065 236.594 61.1097 232.465 64.4129C232.465 65.2387 230.813 65.2387 229.987 65.2387ZM388.542 50.3742C387.716 50.3742 386.89 50.3742 386.065 49.5484C383.587 47.8968 381.11 46.2452 377.806 44.5936C376.155 43.7678 374.503 42.9419 372.852 42.1161C371.2 41.2903 370.374 38.8129 372.026 36.3355C372.852 34.6839 375.329 33.8581 376.981 34.6839C378.632 35.5097 380.284 36.3355 381.935 37.9871C385.239 39.6387 387.716 41.2903 390.194 43.7678C391.845 45.4194 392.671 47.071 391.019 49.5484C391.019 49.5484 390.194 50.3742 388.542 50.3742ZM254.761 46.2452C253.11 46.2452 252.284 45.4194 251.458 44.5936C250.632 42.9419 250.632 40.4645 253.11 38.8129C258.065 36.3355 262.194 33.8581 267.148 31.3807C268.8 30.5548 271.277 31.3807 272.103 33.0323C272.929 34.6839 272.103 37.1613 270.452 37.9871C265.497 39.6387 261.368 42.1161 257.239 44.5936C256.413 46.2452 255.587 46.2452 254.761 46.2452ZM360.465 36.3355C359.639 36.3355 359.639 36.3355 358.813 36.3355C353.858 34.6839 348.903 33.0323 343.948 32.2065C341.471 31.3807 340.645 29.729 340.645 27.2516C341.471 24.7742 343.123 23.9484 345.6 23.9484C350.555 24.7742 356.335 26.4258 361.29 28.9032C362.942 29.729 364.594 32.2065 363.768 33.8581C363.768 34.6839 362.116 36.3355 360.465 36.3355ZM283.664 33.8581C282.013 33.8581 280.361 33.0323 279.535 31.3807C278.71 28.9032 280.361 27.2516 282.013 26.4258C286.968 24.7742 292.748 23.9484 297.703 23.1226C300.181 23.1226 301.832 23.9484 301.832 26.4258C301.832 28.9032 301.006 30.5548 298.529 30.5548C293.574 31.3807 288.619 32.2065 283.664 33.8581C283.664 33.8581 284.49 33.8581 283.664 33.8581ZM329.91 28.9032C324.129 28.0774 319.174 28.0774 314.219 28.0774C311.742 28.0774 310.09 26.4258 310.09 23.9484C310.09 21.471 311.742 19.8194 314.219 19.8194C320 19.8194 324.955 19.8194 330.735 20.6452C333.213 20.6452 334.865 23.1226 334.039 24.7742C334.039 27.2516 332.387 28.9032 329.91 28.9032Z" fill="white" fill-opacity="0.36"/>
<path d="M149.058 326.194C125.935 326.194 103.639 320.413 82.9935 308.852C20.2323 271.69 -1.23871 190.761 35.0968 128C58.2194 87.5355 102.813 61.9355 149.058 61.9355C172.181 61.9355 194.477 67.7161 215.123 79.2774C277.884 115.613 299.355 196.542 263.019 259.303C239.897 300.594 196.129 326.194 149.058 326.194ZM149.058 77.6258C107.768 77.6258 68.9548 99.9226 48.3097 135.432C16.1032 191.587 35.9226 262.606 91.2516 294.813C108.594 304.723 129.239 310.503 149.058 310.503C190.348 310.503 229.161 288.206 249.806 252.697C282.013 197.368 263.019 126.348 207.69 94.1419C189.523 83.4065 169.703 77.6258 149.058 77.6258Z" fill="white"/>
<path d="M363.768 450.065C340.645 450.065 318.348 444.284 297.703 432.723C267.148 415.381 245.677 386.477 236.594 352.619C227.51 318.761 232.465 283.252 249.806 252.697C272.929 212.232 316.697 186.632 363.768 186.632C386.89 186.632 409.187 192.413 429.832 203.974C492.594 240.31 514.064 321.239 477.729 384C454.606 424.465 410.839 450.065 363.768 450.065ZM363.768 201.497C322.477 201.497 283.665 223.794 263.019 259.303C247.329 286.555 243.2 317.11 251.458 347.665C259.716 378.219 278.71 402.994 305.961 417.858C323.303 427.768 343.948 433.548 363.768 433.548C405.058 433.548 443.871 411.252 464.516 375.742C496.723 320.413 477.729 249.394 422.4 217.187C404.232 207.277 384.413 201.497 363.768 201.497Z" fill="white"/>
<path d="M256.413 264.258C183.742 264.258 124.284 204.8 124.284 132.129C124.284 59.4581 183.742 0 256.413 0C329.084 0 388.542 59.4581 388.542 132.129C388.542 204.8 329.084 264.258 256.413 264.258ZM256.413 15.6903C192 15.6903 139.974 67.7161 139.974 132.129C139.974 196.542 192 248.568 256.413 248.568C320.826 248.568 372.852 196.542 372.852 132.129C372.852 67.7161 320.826 15.6903 256.413 15.6903Z" fill="white"/>
<path d="M256.413 512C183.742 512 124.284 452.542 124.284 379.871C124.284 307.2 183.742 247.742 256.413 247.742C329.084 247.742 388.542 307.2 388.542 379.871C388.542 452.542 329.084 512 256.413 512ZM256.413 263.432C192 263.432 139.974 315.458 139.974 379.871C139.974 444.284 192 496.31 256.413 496.31C320.826 496.31 372.852 444.284 372.852 379.871C372.852 316.284 320.826 263.432 256.413 263.432Z" fill="white"/>
<path d="M149.058 450.065C101.987 450.065 58.2194 424.465 35.0968 384C-1.23871 321.239 20.2323 240.31 82.9935 203.974C102.813 192.413 125.935 186.632 149.058 186.632C196.129 186.632 239.897 212.232 263.019 252.697C299.355 315.458 277.884 396.387 215.123 432.723C195.303 443.458 172.181 450.065 149.058 450.065ZM149.058 201.497C128.413 201.497 108.594 207.277 91.2516 217.187C35.9226 249.394 16.929 320.413 49.1355 375.742C69.7806 411.252 108.594 433.548 149.884 433.548C170.529 433.548 190.348 427.768 207.69 417.858C263.019 385.652 282.013 314.632 249.806 259.303C229.161 223.794 190.348 201.497 149.058 201.497Z" fill="white"/>
<path d="M363.768 326.194C316.697 326.194 272.929 300.594 249.806 260.129C232.465 229.574 227.51 194.065 236.594 160.206C245.677 126.348 267.148 97.4452 297.703 80.1032C317.523 68.5419 340.645 62.7613 363.768 62.7613C410.839 62.7613 454.606 88.3613 477.729 128.826C495.071 159.381 500.026 194.89 490.942 228.748C481.858 262.606 460.387 291.51 429.832 308.852C410.013 319.587 386.89 326.194 363.768 326.194ZM363.768 77.6258C343.123 77.6258 323.303 83.4065 305.961 93.3161C278.71 109.006 259.716 133.781 251.458 163.51C243.2 193.239 247.329 224.619 263.019 251.871C283.665 287.381 322.477 309.677 363.768 309.677C384.413 309.677 404.232 303.897 421.574 293.987C448.826 278.297 467.819 253.523 476.077 223.794C484.335 194.065 480.206 162.684 464.516 135.432C443.871 99.9226 405.058 77.6258 363.768 77.6258Z" fill="white"/>
</svg>
