<svg width="512" height="512" viewBox="0 0 512 512" fill="none" xmlns="http://www.w3.org/2000/svg">
<path d="M488.652 71.6924C481.718 49.8838 472.319 34.2686 471.921 33.6123C470.38 31.0723 467.207 29.751 464.333 30.4102C463.589 30.5801 445.841 34.7227 425.368 44.9473C397.73 58.7461 378.423 77.168 369.528 98.2119C362.125 115.737 361.062 137.162 366.314 160.831C355.126 148.336 342.54 137.405 328.82 128.203C324.631 119.927 313.554 99.5508 296.236 78.2549C290.532 71.2442 279.561 80.042 285.323 87.1231C296.992 101.476 305.775 115.591 311.269 125.288L247.217 112.802L186.361 29.7949C192.27 29.877 198.2 30.4482 204.101 31.6055C222.807 35.2676 241.284 44.7949 259.029 59.918C265.981 65.8447 275.011 55.0576 268.149 49.2129C248.547 32.5078 227.907 21.9375 206.802 17.8037C174.584 11.499 137.008 19.7754 98.1249 41.7481C69.1444 58.125 49.7645 76.1133 48.9559 76.8692C46.3632 79.292 45.9501 83.6924 48.121 86.5225C50.9628 92.3526 61.7323 113.385 79.6591 136.028C90.2265 149.379 101.371 160.805 112.899 170.194C109.624 172.94 106.436 175.811 103.351 178.831C86.8749 194.947 74.2597 213.958 65.9774 234.741C58.6562 253.105 54.7186 272.859 54.4989 293.221C54.1356 326.517 63.7831 358.629 82.4042 386.092C100.595 412.916 126.024 433.512 155.942 445.65C164.315 449.039 169.609 436.017 161.23 432.618C150.391 428.221 140.207 422.587 130.814 415.887C132.016 409.225 134.802 385.248 118.876 360.428C116.646 356.956 123.311 343.321 127.29 335.177C131.397 326.783 135.637 318.106 137.617 309.935C139.721 301.254 137.353 293.968 130.776 288.856C125.948 285.103 119.629 283.16 114.059 281.446C110.441 280.333 106.34 279.073 104.875 277.852C101.857 275.323 96.9296 265.981 92.9687 258.478C88.5741 250.154 84.3905 242.233 80.1191 237.355C89.7314 214.526 105.171 194.326 124.507 178.872C142.17 190.904 162.329 199.207 183.757 200.889C158.907 220.143 150.868 244.732 162.358 268.351C175.776 295.931 203.394 291.525 227.761 287.643C231.977 286.969 236.339 286.275 240.517 285.753C242.084 285.557 242.556 285.984 242.872 286.263C248.207 291.009 248.049 313.676 247.935 330.229C247.779 353.124 247.633 374.751 256.161 385.855C260.512 391.515 266.638 394.409 273.818 394.409C278.122 394.409 282.798 393.372 287.702 391.269C308.91 382.187 330.956 354.853 327.593 333.226C324.654 314.318 322.709 301.825 327.294 291.756C331.533 282.437 341.781 273.809 361.964 262.799C364.381 273.683 365.6 285.006 365.474 296.622C365.043 336.273 349.193 373.383 320.849 401.112C289.17 432.103 244.647 447.407 200.605 442.553C191.632 441.58 190.082 455.543 199.067 456.533C247.275 461.842 296.017 445.084 330.681 411.167C361.715 380.807 379.064 340.184 379.536 296.772C380.163 239.212 350.629 188.218 305.67 158.842C314.96 152.218 321.88 146.49 325.718 143.165C342.109 154.925 356.649 169.412 368.746 186.29C397.785 226.816 409.302 276.22 401.181 325.409C384.408 426.949 288.159 495.923 186.602 479.145C137.409 471.021 94.328 444.232 65.289 403.705C36.247 363.182 24.7304 313.773 32.8544 264.586C34.3134 255.735 20.4471 253.412 18.9823 262.295C10.243 315.191 22.6327 368.32 53.8544 411.9C85.0819 455.473 131.415 484.283 184.311 493.023C195.373 494.848 206.447 495.75 217.445 495.75C259.018 495.75 299.459 482.842 333.921 458.148C377.506 426.92 406.319 380.596 415.053 327.7C421.454 288.941 416.5 250.055 401.113 214.893C408.215 212.798 420.3 208.732 433.536 202.122C461.169 188.323 480.479 169.901 489.37 148.857C498.271 127.808 498.022 101.124 488.652 71.6924V71.6924ZM80.5292 265.04C85.7616 274.96 90.7099 284.335 95.8515 288.636C99.4931 291.68 104.561 293.238 109.926 294.888C123.669 299.112 125.266 301.187 123.947 306.621C122.33 313.304 118.428 321.284 114.657 328.998C107.394 343.858 100.536 357.885 107.037 368.022C116.257 382.389 117.836 396.533 117.678 405.331C75.7948 367.565 58.7411 307.913 74.3417 253.696C76.4101 257.241 78.5839 261.36 80.5292 265.04V265.04ZM420.739 126.856L400.756 78.4278C410.48 69.334 421.762 62.4903 431.371 57.6709C439.557 53.5635 447.344 50.4932 453.59 48.3164L420.739 126.856ZM466.554 53.7686C469.346 59.7686 472.583 67.5059 475.349 76.251C478.381 85.8487 481.164 97.7432 481.718 110.15L434.887 129.472L466.554 53.7686ZM382.481 103.688C384.555 98.7832 387.235 94.2364 390.332 90.0381L413.081 145.16L392.667 193.975C389.799 187.89 386.421 179.898 383.556 170.818C377.805 152.64 372.953 126.231 382.481 103.688ZM427.53 189.399C419.652 193.354 412.135 196.348 406.012 198.507L427.196 147.861L481.12 125.61C480.338 131.651 478.847 137.64 476.418 143.382C466.894 165.926 444.575 180.853 427.53 189.399ZM173.975 185.397C171.49 184.91 169.038 184.315 166.621 183.639L244.445 126.592L308.526 139.081C285.183 157.474 228.373 196.055 173.975 185.397V185.397ZM102.851 141.401C86.2069 123.463 74.0077 104.282 67.0028 92.001L148.551 107.9L102.851 141.401ZM117.253 47.584L151.372 94.1221L69.2968 78.1231C79.6298 69.9639 96.6864 57.7149 117.253 47.584ZM171.716 98.0889L130.351 41.666C142.735 36.5772 156.027 32.5723 169.653 30.791L226.876 108.838L171.716 98.0889ZM167.339 111.563L225.66 122.93L150.81 177.794C136.694 171.275 123.991 161.903 112.876 151.485L167.339 111.563ZM358.144 248.877C332.793 262.383 320.38 272.991 314.491 285.932C308.166 299.827 310.483 314.742 313.691 335.385C315.587 347.558 301.12 370.225 282.165 378.343C275.151 381.346 270.156 380.991 267.312 377.285C261.725 370.014 261.877 348.006 261.997 330.325C262.164 305.862 262.311 284.736 252.218 275.757C248.588 272.528 243.944 271.163 238.785 271.796C234.364 272.347 229.879 273.062 225.546 273.753C199.697 277.872 183.432 279.522 175.006 262.198C161.353 234.141 188.989 213.357 201.505 205.726C204.054 204.173 206.418 202.342 208.615 200.303C238.864 196.688 267.446 183.709 292.917 167.452C323.456 185.698 346.899 214.573 358.144 248.877V248.877Z" fill="white"/>
</svg>
