<svg width="512" height="512" viewBox="0 0 512 512" fill="none" xmlns="http://www.w3.org/2000/svg">
<path d="M503.467 101.667C501.204 101.667 499.033 102.566 497.433 104.166C495.832 105.766 494.933 107.937 494.933 110.2V417.4H448.597C393.684 417.405 338.948 423.64 285.44 435.986C282.084 436.754 278.573 436.485 275.373 435.214C272.173 433.943 269.435 431.73 267.52 428.869C297.987 410.219 333.012 400.344 368.734 400.333H469.333C471.597 400.333 473.767 399.434 475.367 397.834C476.968 396.234 477.867 394.063 477.867 391.8V332.067C477.867 329.803 476.968 327.633 475.367 326.033C473.767 324.432 471.597 323.533 469.333 323.533C467.07 323.533 464.9 324.432 463.299 326.033C461.699 327.633 460.8 329.803 460.8 332.067V383.267H368.734C332.214 383.232 296.31 392.676 264.533 410.676V178.467C264.533 176.203 263.634 174.033 262.034 172.433C260.434 170.832 258.263 169.933 256 169.933C253.737 169.933 251.566 170.832 249.966 172.433C248.366 174.033 247.467 176.203 247.467 178.467V410.667C215.69 392.669 179.786 383.228 143.266 383.267H51.2V76.0667H182.613C199.817 76.078 216.313 82.9202 228.474 95.0893C240.635 107.258 247.467 123.759 247.467 140.963C247.467 143.226 248.366 145.396 249.966 146.997C251.566 148.597 253.737 149.496 256 149.496C258.263 149.496 260.434 148.597 262.034 146.997C263.634 145.396 264.533 143.226 264.533 140.963C264.533 123.759 271.365 107.258 283.526 95.0893C295.687 82.9202 312.183 76.078 329.387 76.0667H460.8V297.933C460.8 300.196 461.699 302.367 463.299 303.967C464.9 305.568 467.07 306.467 469.333 306.467C471.597 306.467 473.767 305.568 475.367 303.967C476.968 302.367 477.867 300.196 477.867 297.933V67.5333C477.867 65.2702 476.968 63.0997 475.367 61.4994C473.767 59.899 471.597 59 469.333 59H329.387C314.134 59.0113 299.186 63.2752 286.222 71.3126C273.259 79.35 262.793 90.8427 256 104.5C249.207 90.8427 238.741 79.35 225.778 71.3126C212.814 63.2752 197.866 59.0113 182.613 59H42.6667C40.4035 59 38.233 59.899 36.6327 61.4994C35.0324 63.0997 34.1333 65.2702 34.1333 67.5333V391.8C34.1333 394.063 35.0324 396.234 36.6327 397.834C38.233 399.434 40.4035 400.333 42.6667 400.333H143.266C178.994 400.341 214.025 410.216 244.497 428.869C242.576 431.723 239.836 433.93 236.638 435.2C233.44 436.47 229.933 436.744 226.577 435.986C173.064 423.638 118.322 417.403 63.4027 417.4H17.0667V110.2C17.0667 107.937 16.1676 105.766 14.5673 104.166C12.967 102.566 10.7965 101.667 8.53333 101.667C6.27015 101.667 4.09967 102.566 2.49936 104.166C0.899045 105.766 0 107.937 0 110.2V425.933C0 428.196 0.899045 430.367 2.49936 431.967C4.09967 433.568 6.27015 434.467 8.53333 434.467H63.4027C117.024 434.475 170.471 440.564 222.72 452.617C228.727 454.004 234.998 453.729 240.861 451.823C246.724 449.917 251.957 446.451 256 441.797C260.042 446.453 265.275 449.92 271.138 451.826C277.001 453.732 283.273 454.006 289.28 452.617C341.529 440.566 394.976 434.477 448.597 434.467H503.467C505.73 434.467 507.9 433.568 509.501 431.967C511.101 430.367 512 428.196 512 425.933V110.2C512 107.937 511.101 105.766 509.501 104.166C507.9 102.566 505.73 101.667 503.467 101.667Z" fill="white"/>
<path d="M228.036 132.498C214.59 123.518 198.782 118.728 182.613 118.733H85.3334C83.0702 118.733 80.8997 119.632 79.2994 121.233C77.6991 122.833 76.8 125.003 76.8 127.267C76.8 129.53 77.6991 131.7 79.2994 133.301C80.8997 134.901 83.0702 135.8 85.3334 135.8H182.613C195.426 135.785 207.954 139.578 218.607 146.697C220.49 147.953 222.795 148.41 225.014 147.966C227.234 147.523 229.187 146.216 230.443 144.333C231.699 142.45 232.155 140.146 231.712 137.926C231.269 135.706 229.962 133.754 228.079 132.498H228.036Z" fill="white"/>
<path d="M426.667 118.733H329.387C313.203 118.721 297.38 123.511 283.921 132.498C282.989 133.12 282.188 133.919 281.565 134.85C280.941 135.782 280.507 136.827 280.288 137.926C280.068 139.025 280.067 140.157 280.285 141.256C280.503 142.355 280.935 143.401 281.557 144.333C282.179 145.266 282.979 146.066 283.91 146.69C284.841 147.313 285.886 147.747 286.986 147.966C288.085 148.186 289.216 148.187 290.316 147.969C291.415 147.751 292.461 147.319 293.393 146.697C304.047 139.581 316.574 135.788 329.387 135.8H426.667C428.93 135.8 431.1 134.901 432.701 133.301C434.301 131.7 435.2 129.53 435.2 127.267C435.2 125.004 434.301 122.833 432.701 121.233C431.1 119.632 428.93 118.733 426.667 118.733Z" fill="white"/>
<path d="M228.036 175.164C214.59 166.185 198.782 161.395 182.613 161.4H85.3334C83.0702 161.4 80.8997 162.299 79.2994 163.899C77.6991 165.5 76.8 167.67 76.8 169.933C76.8 172.197 77.6991 174.367 79.2994 175.967C80.8997 177.568 83.0702 178.467 85.3334 178.467H182.613C195.426 178.452 207.954 182.245 218.607 189.364C220.49 190.62 222.795 191.076 225.014 190.633C227.234 190.19 229.187 188.883 230.443 187C231.699 185.117 232.155 182.812 231.712 180.593C231.269 178.373 229.962 176.42 228.079 175.164H228.036Z" fill="white"/>
<path d="M426.667 161.4H329.387C313.203 161.387 297.38 166.178 283.921 175.164C282.989 175.786 282.188 176.586 281.565 177.517C280.941 178.449 280.507 179.494 280.288 180.593C280.068 181.692 280.067 182.823 280.285 183.923C280.503 185.022 280.935 186.068 281.557 187C282.179 187.932 282.979 188.733 283.91 189.356C284.841 189.98 285.886 190.414 286.986 190.633C288.085 190.853 289.216 190.854 290.316 190.636C291.415 190.418 292.461 189.986 293.393 189.364C304.047 182.247 316.574 178.455 329.387 178.467H426.667C428.93 178.467 431.1 177.568 432.701 175.967C434.301 174.367 435.2 172.197 435.2 169.933C435.2 167.67 434.301 165.5 432.701 163.899C431.1 162.299 428.93 161.4 426.667 161.4Z" fill="white"/>
<path d="M228.036 217.831C214.59 208.851 198.782 204.061 182.613 204.067H85.3334C83.0702 204.067 80.8997 204.966 79.2994 206.566C77.6991 208.166 76.8 210.337 76.8 212.6C76.8 214.863 77.6991 217.034 79.2994 218.634C80.8997 220.234 83.0702 221.133 85.3334 221.133H182.613C195.426 221.119 207.954 224.912 218.607 232.03C220.49 233.286 222.795 233.743 225.014 233.3C227.234 232.856 229.187 231.55 230.443 229.667C231.699 227.784 232.155 225.479 231.712 223.259C231.269 221.04 229.962 219.087 228.079 217.831H228.036Z" fill="white"/>
<path d="M426.667 204.067H329.387C313.203 204.054 297.38 208.844 283.921 217.831C282.989 218.453 282.188 219.252 281.565 220.184C280.941 221.115 280.507 222.16 280.288 223.259C280.068 224.358 280.067 225.49 280.285 226.589C280.503 227.689 280.935 228.734 281.557 229.667C282.179 230.599 282.979 231.4 283.91 232.023C284.841 232.646 285.886 233.08 286.986 233.3C288.085 233.519 289.216 233.52 290.316 233.302C291.415 233.085 292.461 232.652 293.393 232.03C304.047 224.914 316.574 221.121 329.387 221.133H426.667C428.93 221.133 431.1 220.234 432.701 218.634C434.301 217.034 435.2 214.863 435.2 212.6C435.2 210.337 434.301 208.166 432.701 206.566C431.1 204.966 428.93 204.067 426.667 204.067Z" fill="white"/>
<path d="M228.036 260.498C214.59 251.518 198.782 246.728 182.613 246.733H85.3334C83.0702 246.733 80.8997 247.632 79.2994 249.233C77.6991 250.833 76.8 253.003 76.8 255.267C76.8 257.53 77.6991 259.7 79.2994 261.301C80.8997 262.901 83.0702 263.8 85.3334 263.8H182.613C195.426 263.785 207.954 267.578 218.607 274.697C219.539 275.319 220.585 275.751 221.684 275.969C222.784 276.187 223.915 276.186 225.014 275.966C226.113 275.747 227.159 275.313 228.09 274.69C229.021 274.066 229.821 273.266 230.443 272.333C231.065 271.401 231.497 270.355 231.715 269.256C231.932 268.157 231.932 267.025 231.712 265.926C231.493 264.827 231.059 263.782 230.435 262.85C229.812 261.919 229.011 261.12 228.079 260.498H228.036Z" fill="white"/>
<path d="M426.667 246.733H329.387C313.203 246.721 297.38 251.511 283.921 260.498C282.038 261.754 280.731 263.706 280.288 265.926C279.845 268.146 280.301 270.45 281.557 272.333C282.813 274.216 284.766 275.523 286.986 275.967C289.205 276.41 291.51 275.953 293.393 274.697C304.047 267.581 316.574 263.788 329.387 263.8H426.667C428.93 263.8 431.1 262.901 432.701 261.301C434.301 259.7 435.2 257.53 435.2 255.267C435.2 253.004 434.301 250.833 432.701 249.233C431.1 247.632 428.93 246.733 426.667 246.733Z" fill="white"/>
<path d="M228.036 303.164C214.59 294.185 198.782 289.395 182.613 289.4H85.3334C83.0702 289.4 80.8997 290.299 79.2994 291.899C77.6991 293.5 76.8 295.67 76.8 297.933C76.8 300.197 77.6991 302.367 79.2994 303.967C80.8997 305.568 83.0702 306.467 85.3334 306.467H182.613C195.426 306.452 207.954 310.245 218.607 317.364C220.49 318.62 222.795 319.076 225.014 318.633C227.234 318.19 229.187 316.883 230.443 315C231.699 313.117 232.155 310.812 231.712 308.593C231.269 306.373 229.962 304.42 228.079 303.164H228.036Z" fill="white"/>
<path d="M426.667 289.4H329.387C313.203 289.387 297.38 294.178 283.921 303.164C282.989 303.786 282.188 304.586 281.565 305.517C280.941 306.449 280.507 307.494 280.288 308.593C280.068 309.692 280.067 310.823 280.285 311.923C280.503 313.022 280.935 314.068 281.557 315C282.813 316.883 284.766 318.19 286.986 318.633C288.085 318.853 289.216 318.854 290.316 318.636C291.415 318.418 292.461 317.986 293.393 317.364C304.047 310.247 316.574 306.455 329.387 306.467H426.667C428.93 306.467 431.1 305.568 432.701 303.967C434.301 302.367 435.2 300.197 435.2 297.933C435.2 295.67 434.301 293.5 432.701 291.899C431.1 290.299 428.93 289.4 426.667 289.4Z" fill="white"/>
<path d="M182.613 332.067H85.3334C83.0702 332.067 80.8997 332.966 79.2994 334.566C77.6991 336.166 76.8 338.337 76.8 340.6C76.8 342.863 77.6991 345.034 79.2994 346.634C80.8997 348.234 83.0702 349.133 85.3334 349.133H182.613C195.426 349.119 207.954 352.912 218.607 360.03C219.539 360.652 220.585 361.085 221.684 361.302C222.784 361.52 223.915 361.519 225.014 361.3C226.113 361.08 227.159 360.647 228.09 360.023C229.021 359.4 229.821 358.599 230.443 357.667C231.065 356.734 231.497 355.689 231.715 354.589C231.932 353.49 231.932 352.358 231.712 351.259C231.493 350.16 231.059 349.115 230.435 348.184C229.812 347.252 229.011 346.453 228.079 345.831C214.621 336.843 198.797 332.053 182.613 332.067V332.067Z" fill="white"/>
<path d="M426.667 332.067H329.387C313.203 332.054 297.38 336.844 283.921 345.831C282.989 346.453 282.188 347.252 281.565 348.184C280.941 349.115 280.507 350.16 280.288 351.259C280.068 352.358 280.067 353.49 280.285 354.589C280.503 355.689 280.935 356.734 281.557 357.667C282.179 358.599 282.979 359.4 283.91 360.023C284.841 360.646 285.886 361.08 286.986 361.3C288.085 361.519 289.216 361.52 290.316 361.302C291.415 361.085 292.461 360.652 293.393 360.03C304.047 352.914 316.574 349.121 329.387 349.133H426.667C428.93 349.133 431.1 348.234 432.701 346.634C434.301 345.034 435.2 342.863 435.2 340.6C435.2 338.337 434.301 336.166 432.701 334.566C431.1 332.966 428.93 332.067 426.667 332.067Z" fill="white"/>
</svg>
